<svg xmlns="http://www.w3.org/2000/svg" version="1.1" xmlns:xlink="http://www.w3.org/1999/xlink" xmlns:svgjs="http://svgjs.dev/svgjs" width="1000" height="1000" viewBox="0 0 1000 1000"><g transform="matrix(1,0,0,1,-0.14221556886212738,-0.14221556886229791)"><svg viewBox="0 0 334 334" data-background-color="#003366" preserveAspectRatio="xMidYMid meet" height="1000" width="1000" xmlns="http://www.w3.org/2000/svg" xmlns:xlink="http://www.w3.org/1999/xlink"><g id="tight-bounds" transform="matrix(1,0,0,1,0.04749999999998522,0.04750000000001364)"><svg viewBox="0 0 333.90454557049503 333.90454557049503" height="333.90454557049503" width="333.90454557049503"><g><svg></svg></g><g><svg viewBox="0 0 333.90454557049503 333.90454557049503" height="333.90454557049503" width="333.90454557049503"><g><path d="M0 166.952c0-92.205 74.747-166.952 166.952-166.952 92.205 0 166.952 74.747 166.953 166.952 0 92.205-74.747 166.952-166.953 166.953-92.205 0-166.952-74.747-166.952-166.953zM166.952 326.997c88.39 0 160.045-71.654 160.045-160.045 0-88.39-71.654-160.045-160.045-160.044-88.39 0-160.045 71.654-160.044 160.044 0 88.39 71.654 160.045 160.044 160.045z" data-fill-palette-color="tertiary" fill="#cae9ea" stroke="transparent"></path><ellipse rx="160.27418187383762" ry="160.27418187383762" cx="166.95227278524752" cy="166.95227278524752" fill="#cae9ea" stroke="transparent" stroke-width="0" fill-opacity="1" data-fill-palette-color="tertiary"></ellipse></g><g transform="matrix(1,0,0,1,93.24097869374647,71.17305217166896)"><svg viewBox="0 0 147.4225881830021 191.55844122715712" height="191.55844122715712" width="147.4225881830021"><g><svg viewBox="0 0 147.4225881830021 191.55844122715712" height="191.55844122715712" width="147.4225881830021"><g><svg viewBox="0 0 263.4638333567662 342.34049109831517" height="191.55844122715712" width="147.4225881830021"><g transform="matrix(1,0,0,1,25.152696064804545,205.45094922252355)"><svg viewBox="0 0 213.1584412271571 136.88954187579162" height="136.88954187579162" width="213.1584412271571"><g id="textblocktransform"><svg viewBox="0 0 213.1584412271571 136.88954187579162" height="136.88954187579162" width="213.1584412271571" id="textblock"><g><svg viewBox="0 0 213.1584412271571 136.88954187579162" height="136.88954187579162" width="213.1584412271571"><g transform="matrix(1,0,0,1,0,0)"><svg width="213.1584412271571" viewBox="0.550000011920929 -32.0821418762207 75.64999389648438 48.5821418762207" height="136.88954187579162" data-palette-color="#003366"><path d="M2.75-1.85Q2.45-1.75 2.05-1.75 1.65-1.75 1.45-1.75L1.45-1.75 0.55-4.4 10.1-12.65Q8.6-15.7 6-21.2L6-21.2Q5.2-22.95 5.2-24.8L5.2-24.8Q5.2-26.1 5.75-28.3L5.75-28.3Q7.65-28.15 9.2-26.73 10.75-25.3 11.35-23.15L11.35-23.15 11.75-21.65Q12.15-19.95 12.4-19.15L12.4-19.15Q12.6-18.7 13.15-17.75L13.15-17.75 13.8-16.55 15.35-18.2Q19.5-22.7 21.98-25.68 24.45-28.65 26.45-32.05L26.45-32.05Q27.7-32.2 28.68-31.65 29.65-31.1 30.85-30L30.85-30Q31.8-29.1 31.8-27.65L31.8-27.65Q31.8-26.9 31.5-26.13 31.2-25.35 30.65-24.75L30.65-24.75 19-11.95Q18.9-11.8 18.8-11.55 18.7-11.3 18.5-10.95L18.5-10.95 19.95-10.05Q22.25-8.6 22.85-8.25L22.85-8.25 29-4.7Q29.8-4.2 30.05-3.6L30.05-3.6Q30.2-3.3 30.2-3.05L30.2-3.05Q30.2-2.5 29.65-2.23 29.1-1.95 28.25-2.05L28.25-2.05Q25.3-2.45 22.55-3.7 19.8-4.95 17-6.9L17-6.9Q16.3-7.35 15.8-7.65 15.3-7.95 14.9-7.95L14.9-7.95Q14.6-7.95 14.1-7.65 13.6-7.35 12.95-6.9L12.95-6.9Q8.25-3.5 2.75-1.85L2.75-1.85ZM34.7 14.1Q35.05 14 35.6 13.83 36.15 13.65 36.55 13.6L36.55 13.6Q40.15 13.5 41.82 12.1 43.5 10.7 43.95 7.15L43.95 7.15Q44.4 3.6 44.85-3.5L44.85-3.5 45.05-6.7Q45.1-7.85 44.62-8.47 44.15-9.1 42.9-9.25L42.9-9.25Q40.2-9.55 38.22-11.35 36.25-13.15 35.5-15.9L35.5-15.9Q35.25-16.75 34.95-17.9L34.95-17.9Q34.35-20.1 34.1-21.2L34.1-21.2 34.1-21.3Q34.1-21.6 34.3-21.98 34.5-22.35 34.7-22.5L34.7-22.5Q35.5-23.05 36.55-23.05L36.55-23.05Q37.95-23.05 39.05-22.08 40.15-21.1 40.3-19.65L40.3-19.65Q40.55-17.4 41.15-14.75L41.15-14.75Q41.4-13.7 42.1-13.7L42.1-13.7Q42.65-13.7 43.05-14.25L43.05-14.25Q44.35-15.9 45.05-17.45L45.05-17.45Q45.9-19.35 47.55-19.35L47.55-19.35Q48-19.35 48.2-19.3L48.2-19.3Q50.8-18.8 50.7-16.1L50.7-16.1 50.55-11.45Q50.35-5.25 50.1-2.2L50.1-2.2 49.95-0.2Q49.65 3.9 49.37 6.18 49.1 8.45 48.5 10.75L48.5 10.75Q47.75 13.65 45.75 15.08 43.75 16.5 41.05 16.5L41.05 16.5Q38.9 16.5 36.75 15.65L36.75 15.65Q36.3 15.45 35.7 15.13 35.1 14.8 34.8 14.6L34.8 14.6 34.7 14.1ZM62.3-5.45Q62.35-5.3 63.15-5.2 63.95-5.1 64.95-5.1L64.95-5.1Q67.2-5.1 68.4-5.45L68.4-5.45Q69.55-5.75 71.05-6.3L71.05-6.3Q73.4-7.05 74.3-7.25L74.3-7.25Q74.7-7.3 75.25-6.93 75.8-6.55 76.15-6.1L76.15-6.1Q76.2-6.05 76.2-5.85L76.2-5.85Q76.2-5.5 76.02-5.08 75.85-4.65 75.65-4.5L75.65-4.5Q70.05-0.9 63.55-0.9L63.55-0.9Q61.7-0.9 59.85-1.2L59.85-1.2Q58.5-1.45 57.05-3L57.05-3Q56.05-4.1 56.05-4.9L56.05-4.9Q56.05-5.95 57.55-7.35L57.55-7.35 59.7-9.3Q63.35-12.55 64-13.2L64-13.2Q64.25-13.45 64.47-13.95 64.7-14.45 64.85-14.75L64.85-14.75Q64.6-14.85 64.07-15.05 63.55-15.25 63.15-15.35L63.15-15.35 61.85-15.6Q59.95-15.9 58.7-16.43 57.45-16.95 56.6-18.35L56.6-18.35Q57.3-19 57.9-19.3 58.5-19.6 59.3-19.6L59.3-19.6Q59.85-19.6 60.45-19.45L60.45-19.45Q64.5-18.35 68.25-18.05L68.25-18.05Q69.25-18 69.87-17.5 70.5-17 71.15-16.1L71.15-16.1 71.85-15.3Q72.05-15.1 71.65-14.18 71.25-13.25 70.75-12.7L70.75-12.7Q68.65-10.6 64.05-6.5L64.05-6.5Q63.7-6.2 63.15-5.9 62.6-5.6 62.3-5.45L62.3-5.45Z" opacity="1" transform="matrix(1,0,0,1,0,0)" fill="#003366" class="undefined-text-0" data-fill-palette-color="quaternary" id="text-0"></path></svg></g></svg></g></svg></g></svg></g><g><svg viewBox="0 0 263.4638333567662 173.13461373465418" height="173.13461373465418" width="263.4638333567662"><g><svg xmlns="http://www.w3.org/2000/svg" xmlns:xlink="http://www.w3.org/1999/xlink" version="1.1" viewBox="30.233022689819336 63.7448616027832 195.56100463867188 128.51243591308594" x="0" y="0" height="173.13461373465418" width="263.4638333567662" class="icon-icon-0" data-fill-palette-color="quaternary" id="icon-0"><path d="M200.755 110.874c0 3.959-3.209 7.168-7.168 7.168s-7.168-3.209-7.168-7.168c0-3.959 3.209-7.168 7.168-7.168s7.168 3.209 7.168 7.168z" fill="#003366" data-fill-palette-color="quaternary"></path><path d="M172.621 110.874c0 3.959-3.209 7.168-7.168 7.168s-7.168-3.209-7.168-7.168c0-3.959 3.209-7.168 7.168-7.168s7.168 3.209 7.168 7.168z" fill="#003366" data-fill-palette-color="quaternary"></path><path d="M186.982 123.879c0 3.959-3.209 7.168-7.168 7.168s-7.168-3.209-7.168-7.168c0-3.959 3.209-7.168 7.168-7.168s7.168 3.209 7.168 7.168z" fill="#003366" data-fill-palette-color="quaternary"></path><path d="M186.982 97.689c0 3.959-3.209 7.168-7.168 7.168s-7.168-3.209-7.168-7.168c0-3.959 3.209-7.168 7.168-7.168s7.168 3.209 7.168 7.168z" fill="#003366" data-fill-palette-color="quaternary"></path><path d="M224.102 124.903c-1.255-15.053-2.381-20.608-3.174-26.547-1.357-9.984-5.095-18.611-11.187-24.832-6.067-6.246-14.515-9.805-24.064-9.779-10.087 0-19.2 4.301-25.625 11.085h-64.103c-6.425-6.809-15.539-11.085-25.626-11.085-9.549-0.026-17.997 3.533-24.064 9.779-6.093 6.221-9.831 14.848-11.187 24.832-0.819 5.939-1.946 11.495-3.175 26.547-0.845 10.189-1.664 19.789-1.664 28.493 0 4.839 0.256 9.369 0.947 13.619 1.024 6.323 3.046 12.109 7.015 16.691 1.971 2.279 4.403 4.173 7.245 5.581s6.041 2.329 9.575 2.765c1.101 0.128 2.176 0.205 3.251 0.205 4.787 0.025 9.267-1.459 13.005-4.019 5.657-3.84 9.805-9.702 13.363-16.717 3.046-6.067 5.632-13.107 8.064-20.71h70.605c3.353 10.573 7.04 19.968 11.853 27.315 2.688 4.096 5.811 7.577 9.575 10.112 3.738 2.535 8.218 4.019 13.005 4.019 1.075 0 2.15-0.077 3.251-0.205 4.71-0.589 8.857-2.023 12.288-4.352 2.56-1.715 4.71-3.917 6.375-6.4 2.509-3.738 4.019-8.064 4.915-12.749s1.229-9.754 1.229-15.207c-0.025-8.653-0.845-18.279-1.69-28.442zM214.707 165.351c-0.845 5.248-2.406 9.088-4.633 11.623-1.126 1.28-2.406 2.304-4.071 3.149-1.664 0.819-3.712 1.459-6.298 1.792-0.691 0.077-1.331 0.128-1.946 0.128-2.765-0.025-5.018-0.743-7.296-2.279-3.405-2.253-6.835-6.656-9.933-12.826-3.097-6.144-5.913-13.977-8.55-22.733l-1.101-3.635h-85.734l-1.101 3.635c-3.533 11.673-7.373 21.683-11.751 28.288-2.176 3.303-4.454 5.734-6.733 7.27-2.304 1.511-4.531 2.253-7.296 2.279-0.614 0-1.28-0.051-1.946-0.128-3.456-0.435-5.939-1.408-7.859-2.688-1.434-0.973-2.586-2.15-3.584-3.635-1.485-2.227-2.637-5.197-3.353-8.96s-1.05-8.243-1.024-13.261c0-8.038 0.794-17.459 1.639-27.648 1.229-14.823 2.253-19.635 3.123-26.01 1.127-8.32 4.147-14.771 8.371-19.072 4.224-4.275 9.626-6.656 16.742-6.681 7.834 0 14.797 3.584 19.405 9.216l1.536 1.869h73.446l1.536-1.869c4.608-5.632 11.571-9.216 19.405-9.216 7.117 0.025 12.518 2.406 16.743 6.681 4.198 4.301 7.219 10.752 8.371 19.072 0.87 6.374 1.894 11.187 3.123 26.01 0.845 10.189 1.638 19.584 1.638 27.648-0.051 4.48-0.281 8.499-0.87 11.981z" fill="#003366" data-fill-palette-color="quaternary"></path><path d="M59.673 95.667c-3.021 3.558-4.839 8.141-4.839 13.159 0 5.35 2.074 10.189 5.453 13.824l13.184-13.184-13.799-13.799z" fill="#003366" data-fill-palette-color="quaternary"></path><path d="M62.694 124.851c3.456 2.688 7.757 4.301 12.467 4.301 5.017 0 9.6-1.817 13.159-4.838l-12.544-12.544-13.081 13.082z" fill="#003366" data-fill-palette-color="quaternary"></path><path d="M88.986 93.927c-3.635-3.379-8.474-5.453-13.824-5.453-5.017 0-9.6 1.817-13.159 4.838l13.773 13.799 13.21-13.184z" fill="#003366" data-fill-palette-color="quaternary"></path><path d="M78.106 109.44l12.544 12.544c3.021-3.558 4.838-8.141 4.838-13.159 0-4.71-1.613-9.011-4.301-12.467l-13.082 13.082z" fill="#003366" data-fill-palette-color="quaternary"></path></svg></g></svg></g><g></g></svg></g></svg></g></svg></g></svg></g><defs></defs></svg><rect width="333.90454557049503" height="333.90454557049503" fill="none" stroke="none" visibility="hidden"></rect></g></svg></g></svg>